<svg data-logo="logo" xmlns="http://www.w3.org/2000/svg" viewBox="0 0 161 43">
        <g style="opacity: 1;" id="logogram" transform="translate(0, 1) rotate(0)"><path d="M18.529 14.2867C19.7573 13.9362 19.8794 10.5388 18.8016 6.69839C17.7239 2.85797 15.8544 0.0288177 14.6261 0.379292C13.3977 0.729766 13.2757 4.12714 14.3534 7.96759C15.4312 11.8079 17.3007 14.6371 18.529 14.2867Z" fill="black"></path><path d="M26.1248 8.08707C27.2775 4.26882 27.2219 0.869674 26.0007 0.49485C24.7794 0.120017 22.855 2.91144 21.7023 6.72968C20.5497 10.5479 20.6052 13.9471 21.8265 14.3219C23.0477 14.6967 24.9722 11.9053 26.1248 8.08707Z" fill="black"></path><path d="M15.7317 16.0579C16.5771 15.0934 14.858 12.1689 11.8921 9.5258C8.92614 6.88272 5.83646 5.52194 4.99109 6.48642C4.14571 7.45092 5.86478 10.3754 8.83075 13.0185C11.7967 15.6616 14.8864 17.0224 15.7317 16.0579Z" fill="black"></path><path d="M31.5523 13.2463C34.5689 10.6622 36.3444 7.77208 35.5178 6.79115C34.6913 5.81019 31.5758 7.10985 28.5592 9.6939C25.5426 12.278 23.7672 15.1681 24.5937 16.1491C25.4202 17.13 28.5357 15.8304 31.5523 13.2463Z" fill="black"></path><path d="M14.3271 19.0886C14.5213 17.8164 11.5072 16.2928 7.5951 15.6857C3.68285 15.0785 0.353953 15.6177 0.15976 16.8899C-0.0344332 18.1621 2.97961 19.6855 6.89183 20.2927C10.804 20.8999 14.1329 20.3607 14.3271 19.0886Z" fill="black"></path><path d="M33.3469 20.5473C37.2702 20.018 40.3134 18.5548 40.1441 17.2789C39.9749 16.0031 36.6572 15.398 32.7338 15.9271C28.8106 16.4564 25.7673 17.9197 25.9366 19.1955C26.1059 20.4713 29.4235 21.0765 33.3469 20.5473Z" fill="black"></path><path d="M9.1521 27.4532C12.7688 25.8311 15.28 23.5628 14.7611 22.3867C14.2424 21.2106 10.89 21.5722 7.2733 23.1943C3.65667 24.8164 1.1454 27.0847 1.66421 28.2608C2.18302 29.4369 5.53546 29.0753 9.1521 27.4532Z" fill="black"></path><path d="M38.408 28.6255C38.9497 27.46 36.4833 25.1421 32.8991 23.4484C29.3149 21.7547 25.9702 21.3266 25.4285 22.4921C24.8868 23.6577 27.3532 25.9755 30.9374 27.6692C34.5215 29.3629 37.8663 29.7911 38.408 28.6255Z" fill="black"></path><path d="M14.9029 32.2399C17.0755 28.9036 17.9717 25.6262 16.9047 24.9198C15.8375 24.2133 13.2112 26.3451 11.0387 29.6814C8.86604 33.0177 7.96985 36.2949 9.03689 37.0015C10.104 37.708 12.7302 35.5762 14.9029 32.2399Z" fill="black"></path><path d="M30.8687 37.2253C31.9494 36.5402 31.1175 33.2456 29.0106 29.8668C26.9036 26.488 24.3195 24.3044 23.2388 24.9895C22.1582 25.6746 22.9901 28.9692 25.097 32.348C27.2039 35.7268 29.7881 37.9105 30.8687 37.2253Z" fill="black"></path><path d="M22.3061 33.1463C22.3448 29.1553 21.3414 25.9098 20.0649 25.8972C18.7884 25.8846 17.7222 29.1098 17.6835 33.1007C17.6448 37.0918 18.6483 40.3374 19.9247 40.3499C21.2013 40.3625 22.2675 37.1374 22.3061 33.1463Z" fill="black"></path></g>
        <g style="opacity: 1;" id="logotype" transform="translate(47, 8.5)"><path fill="#1b2936" d="M25.38 26L8.31 26L8.31 0.54L25.35 0.54L25.35 4.86L13.52 4.86L13.52 11.01L24.44 11.01L24.44 15.27L13.52 15.27L13.52 21.68L25.38 21.68L25.38 26ZM34.16 26.32L34.16 26.32Q31.96 26.32 30.19 25.19Q28.42 24.05 27.39 21.86Q26.37 19.66 26.37 16.48L26.37 16.48Q26.37 13.22 27.43 11.03Q28.49 8.84 30.25 7.75Q32.01 6.65 34.13 6.65L34.13 6.65Q35.75 6.65 36.83 7.20Q37.90 7.75 38.57 8.55Q39.24 9.35 39.56 10.11L39.56 10.11L39.73 10.11L39.73 0.54L44.86 0.54L44.86 26L39.82 26L39.82 22.94L39.56 22.94Q39.22 23.71 38.55 24.49Q37.87 25.27 36.79 25.79Q35.72 26.32 34.16 26.32ZM35.73 22.21L35.73 22.21Q37.03 22.21 37.96 21.49Q38.88 20.77 39.36 19.48Q39.84 18.19 39.84 16.46L39.84 16.46Q39.84 14.72 39.37 13.45Q38.90 12.17 37.97 11.47Q37.05 10.76 35.73 10.76L35.73 10.76Q34.38 10.76 33.47 11.49Q32.56 12.23 32.09 13.51Q31.63 14.79 31.63 16.46L31.63 16.46Q31.63 18.14 32.10 19.44Q32.57 20.74 33.49 21.47Q34.40 22.21 35.73 22.21ZM58.17 26L52.34 26L45.30 6.89L50.75 6.89L53.97 16.81Q54.55 18.67 54.98 20.57Q55.42 22.46 55.88 24.50L55.88 24.50L54.79 24.50Q55.23 22.46 55.66 20.57Q56.09 18.67 56.67 16.81L56.67 16.81L59.85 6.89L65.23 6.89L58.17 26ZM74.22 26.38L74.22 26.38Q71.35 26.38 69.24 25.14Q67.14 23.90 66.00 21.68Q64.87 19.47 64.87 16.53L64.87 16.53Q64.87 13.56 66.00 11.35Q67.14 9.13 69.24 7.89Q71.35 6.65 74.22 6.65L74.22 6.65Q77.10 6.65 79.20 7.89Q81.29 9.13 82.43 11.35Q83.56 13.56 83.56 16.53L83.56 16.53Q83.56 19.47 82.43 21.68Q81.29 23.90 79.20 25.14Q77.10 26.38 74.22 26.38ZM74.22 22.34L74.22 22.34Q75.58 22.34 76.51 21.58Q77.43 20.82 77.89 19.50Q78.35 18.17 78.35 16.52L78.35 16.52Q78.35 14.82 77.89 13.51Q77.43 12.19 76.51 11.44Q75.58 10.69 74.22 10.69L74.22 10.69Q72.85 10.69 71.94 11.44Q71.02 12.19 70.56 13.51Q70.10 14.82 70.10 16.52L70.10 16.52Q70.10 18.17 70.56 19.50Q71.02 20.82 71.94 21.58Q72.85 22.34 74.22 22.34ZM89.99 26L84.86 26L84.86 6.89L89.82 6.89L89.82 10.23L90.02 10.23Q90.55 8.45 91.79 7.54Q93.03 6.64 94.64 6.64L94.64 6.64Q95.03 6.64 95.48 6.68Q95.94 6.72 96.29 6.81L96.29 6.81L96.29 11.39Q95.95 11.27 95.30 11.20Q94.65 11.13 94.07 11.13L94.07 11.13Q92.91 11.13 91.97 11.64Q91.03 12.14 90.51 13.04Q89.99 13.93 89.99 15.13L89.99 15.13L89.99 26ZM102.17 26.38L102.17 26.38Q100.36 26.38 98.92 25.74Q97.47 25.09 96.64 23.82Q95.81 22.55 95.81 20.65L95.81 20.65Q95.81 19.06 96.40 17.98Q96.99 16.91 98.01 16.26Q99.03 15.61 100.32 15.27Q101.61 14.93 103.03 14.79L103.03 14.79Q104.68 14.62 105.70 14.47Q106.72 14.33 107.19 14.01Q107.66 13.70 107.66 13.08L107.66 13.08L107.66 12.99Q107.66 12.17 107.32 11.61Q106.97 11.05 106.31 10.75Q105.64 10.45 104.67 10.45L104.67 10.45Q103.68 10.45 102.94 10.75Q102.21 11.05 101.74 11.54Q101.28 12.04 101.06 12.65L101.06 12.65L96.36 11.87Q96.86 10.21 98.00 9.05Q99.15 7.88 100.85 7.27Q102.55 6.65 104.67 6.65L104.67 6.65Q106.22 6.65 107.67 7.02Q109.13 7.39 110.28 8.16Q111.43 8.93 112.11 10.16Q112.78 11.39 112.78 13.13L112.78 13.13L112.78 26L107.93 26L107.93 23.35L107.76 23.35Q107.30 24.24 106.53 24.91Q105.76 25.59 104.68 25.98Q103.59 26.38 102.17 26.38ZM103.62 22.77L103.62 22.77Q104.84 22.77 105.75 22.29Q106.67 21.81 107.18 20.99Q107.69 20.17 107.69 19.16L107.69 19.16L107.69 17.10Q107.47 17.27 107.01 17.40Q106.55 17.54 105.98 17.64Q105.42 17.75 104.87 17.83Q104.32 17.92 103.90 17.97L103.90 17.97Q102.96 18.10 102.24 18.41Q101.52 18.72 101.13 19.22Q100.74 19.73 100.74 20.51L100.74 20.51Q100.74 21.25 101.11 21.75Q101.49 22.26 102.13 22.51Q102.77 22.77 103.62 22.77Z"></path></g>
        
      </svg>